<svg width="298" height="99" viewBox="0 0 298 99" fill="none" xmlns="http://www.w3.org/2000/svg">
<path d="M0 0H260.242L297 59H36.4814L0 0Z" fill="#C5C5C5" fill-opacity="0.8"/>
<path d="M135.441 89.72C135.441 89.9333 134.808 90.04 133.541 90.04C132.261 90.04 131.621 89.94 131.621 89.74V76.7C131.621 76.2333 131.868 76 132.361 76H136.181C139.688 76 141.441 77.3667 141.441 80.1C141.441 80.9267 141.281 81.68 140.961 82.36C140.641 83.0267 140.188 83.56 139.601 83.96L142.121 88.16C142.014 88.48 141.668 88.8467 141.081 89.26C140.281 89.8333 139.621 90.12 139.101 90.12C138.581 90.12 138.194 89.9333 137.941 89.56L136.061 85.18H135.441V89.72ZM135.441 79.54V82.54H135.541C136.808 82.54 137.441 82.0133 137.441 80.96C137.441 80.48 137.314 80.1267 137.061 79.9C136.821 79.66 136.421 79.54 135.861 79.54H135.441ZM149.918 81.56C150.171 81.56 150.298 82.0267 150.298 82.96C150.298 83.24 150.265 83.5733 150.198 83.96C150.145 84.3333 150.038 84.52 149.878 84.52H147.338V86.52H151.018C151.245 86.52 151.398 86.8133 151.478 87.4C151.518 87.6533 151.538 87.9267 151.538 88.22C151.538 88.5 151.498 88.8667 151.418 89.32C151.338 89.7733 151.205 90 151.018 90H144.178C143.671 90 143.418 89.7933 143.418 89.38V76.52C143.418 76.1733 143.571 76 143.878 76H151.038C151.318 76 151.458 76.5933 151.458 77.78C151.458 78.9533 151.318 79.54 151.038 79.54H147.338V81.56H149.918ZM153.801 79.64C153.575 79.64 153.415 79.3333 153.321 78.72C153.281 78.4667 153.261 78.1867 153.261 77.88C153.261 77.5733 153.295 77.2533 153.361 76.92C153.481 76.3067 153.681 76 153.961 76H161.361C162.175 76 162.701 76.74 162.941 78.22C162.995 78.54 163.021 78.7733 163.021 78.92L158.341 86.02H162.001C162.015 86.02 162.028 86.02 162.041 86.02C162.335 86.02 162.541 86.34 162.661 86.98C162.715 87.2867 162.741 87.6067 162.741 87.94C162.741 88.2733 162.701 88.6267 162.621 89C162.475 89.6667 162.248 90 161.941 90H154.161C154.041 90 153.821 89.6 153.501 88.8C153.195 87.9867 153.041 87.48 153.041 87.28C153.041 87.08 153.061 86.9533 153.101 86.9L157.781 79.64H153.801ZM172.751 86.2H164.851C164.611 86.2 164.437 86.0067 164.331 85.62C164.277 85.42 164.251 85.2267 164.251 85.04C164.251 84.8533 164.277 84.66 164.331 84.46C164.437 84.0733 164.611 83.88 164.851 83.88H172.751C172.991 83.88 173.164 84.0733 173.271 84.46C173.324 84.66 173.351 84.8533 173.351 85.04C173.351 85.2267 173.324 85.42 173.271 85.62C173.164 86.0067 172.991 86.2 172.751 86.2ZM175.059 89.08V77.08C175.059 76.7467 175.139 76.4867 175.299 76.3C175.472 76.1 175.692 76 175.959 76H179.299C181.419 76 183.025 76.5333 184.119 77.6C185.225 78.6667 185.779 80.3467 185.779 82.64C185.779 87.5467 183.685 90 179.499 90H176.079C175.399 90 175.059 89.6933 175.059 89.08ZM178.899 79.8V85.78C178.899 86.06 178.919 86.24 178.959 86.32C178.999 86.3867 179.119 86.42 179.319 86.42C180.052 86.42 180.605 86.1467 180.979 85.6C181.365 85.0533 181.559 84.1467 181.559 82.88C181.559 81.6 181.359 80.7667 180.959 80.38C180.572 79.9933 179.952 79.8 179.099 79.8H178.899ZM193.883 81.56C194.136 81.56 194.263 82.0267 194.263 82.96C194.263 83.24 194.229 83.5733 194.163 83.96C194.109 84.3333 194.003 84.52 193.843 84.52H191.303V86.52H194.983C195.209 86.52 195.363 86.8133 195.443 87.4C195.483 87.6533 195.503 87.9267 195.503 88.22C195.503 88.5 195.463 88.8667 195.383 89.32C195.303 89.7733 195.169 90 194.983 90H188.143C187.636 90 187.383 89.7933 187.383 89.38V76.52C187.383 76.1733 187.536 76 187.843 76H195.003C195.283 76 195.423 76.5933 195.423 77.78C195.423 78.9533 195.283 79.54 195.003 79.54H191.303V81.56H193.883ZM205.446 86.2H197.546C197.306 86.2 197.133 86.0067 197.026 85.62C196.973 85.42 196.946 85.2267 196.946 85.04C196.946 84.8533 196.973 84.66 197.026 84.46C197.133 84.0733 197.306 83.88 197.546 83.88H205.446C205.686 83.88 205.859 84.0733 205.966 84.46C206.019 84.66 206.046 84.8533 206.046 85.04C206.046 85.2267 206.019 85.42 205.966 85.62C205.859 86.0067 205.686 86.2 205.446 86.2ZM213.474 75.82C214.447 75.82 215.301 75.96 216.034 76.24C216.781 76.5067 217.154 76.8733 217.154 77.34C217.154 77.8067 216.974 78.3867 216.614 79.08C216.267 79.76 215.974 80.1 215.734 80.1C215.667 80.1 215.587 80.0667 215.494 80C215.414 79.92 215.214 79.84 214.894 79.76C214.587 79.6667 214.321 79.62 214.094 79.62C213.321 79.62 212.694 79.8933 212.214 80.44C211.747 80.9867 211.514 81.8267 211.514 82.96C211.514 84.08 211.754 84.9133 212.234 85.46C212.727 86.0067 213.347 86.28 214.094 86.28C214.401 86.28 214.741 86.24 215.114 86.16C215.501 86.0667 215.774 85.94 215.934 85.78C215.961 85.7533 216.014 85.74 216.094 85.74C216.174 85.74 216.321 85.8933 216.534 86.2C216.761 86.4933 216.967 86.8867 217.154 87.38C217.341 87.86 217.434 88.2333 217.434 88.5C217.434 89.02 217.034 89.4333 216.234 89.74C215.434 90.0467 214.487 90.2 213.394 90.2C211.634 90.2 210.187 89.58 209.054 88.34C207.921 87.1 207.354 85.3533 207.354 83.1C207.354 80.8333 207.934 79.0533 209.094 77.76C210.267 76.4667 211.727 75.82 213.474 75.82ZM229.845 89.66C229.845 89.8867 229.172 90 227.825 90C226.478 90 225.805 89.8867 225.805 89.66V85.06H223.005V89.66C223.005 89.8867 222.332 90 220.985 90C219.638 90 218.965 89.8867 218.965 89.66V76.4C218.965 76.12 219.638 75.98 220.985 75.98C222.332 75.98 223.005 76.12 223.005 76.4V81.1H225.805V76.44C225.805 76.2533 226.138 76.12 226.805 76.04C227.152 76.0133 227.492 76 227.825 76L228.845 76.04C229.512 76.12 229.845 76.2533 229.845 76.44V89.66ZM241.236 90.04C240.076 90.04 239.449 89.8533 239.356 89.48L238.696 86.9H235.516L234.936 89.38C234.856 89.7933 234.216 90 233.016 90C232.376 90 231.903 89.9667 231.596 89.9C231.289 89.82 231.136 89.76 231.136 89.72L234.676 76.18C234.676 76.0733 235.589 76.02 237.416 76.02C239.243 76.02 240.156 76.0733 240.156 76.18L243.616 89.74C243.616 89.8333 243.309 89.9067 242.696 89.96C242.083 90.0133 241.596 90.04 241.236 90.04ZM236.016 84.36H238.116L237.216 80.22H237.096L236.016 84.36ZM251.481 76.4C251.481 76.1333 252.201 76 253.641 76C255.095 76 255.821 76.1333 255.821 76.4V85.58C255.821 86.94 255.335 88.0533 254.361 88.92C253.388 89.7733 252.041 90.2 250.321 90.2C248.615 90.2 247.221 89.76 246.141 88.88C245.075 87.9867 244.541 86.7867 244.541 85.28V76.42C244.541 76.1533 245.261 76.02 246.701 76.02C248.155 76.02 248.881 76.1533 248.881 76.42V85.44C248.881 85.7067 249.021 85.92 249.301 86.08C249.595 86.24 249.901 86.32 250.221 86.32C250.541 86.32 250.828 86.2467 251.081 86.1C251.348 85.9533 251.481 85.7333 251.481 85.44V76.4ZM258.02 85.12C258.273 85.32 258.707 85.5933 259.32 85.94C259.947 86.2867 260.54 86.46 261.1 86.46C261.673 86.46 261.96 86.24 261.96 85.8C261.96 85.6 261.88 85.4267 261.72 85.28C261.56 85.12 261.267 84.94 260.84 84.74C260.413 84.54 260.093 84.3867 259.88 84.28C259.667 84.16 259.38 83.9733 259.02 83.72C258.673 83.4533 258.407 83.18 258.22 82.9C257.687 82.14 257.42 81.1733 257.42 80C257.42 78.8267 257.853 77.84 258.72 77.04C259.6 76.2267 260.747 75.82 262.16 75.82C263.12 75.82 264.007 75.9267 264.82 76.14C265.633 76.34 266.053 76.6067 266.08 76.94C266.08 76.98 266.08 77.02 266.08 77.06C266.08 77.5267 265.933 78.12 265.64 78.84C265.347 79.5467 265.14 79.94 265.02 80.02C264.167 79.58 263.4 79.36 262.72 79.36C262.053 79.36 261.72 79.6 261.72 80.08C261.72 80.3733 261.967 80.6333 262.46 80.86C262.567 80.9133 262.72 80.9867 262.92 81.08C263.12 81.1733 263.347 81.2867 263.6 81.42C263.867 81.54 264.147 81.7 264.44 81.9C264.747 82.0867 265.073 82.34 265.42 82.66C266.127 83.3267 266.48 84.2067 266.48 85.3C266.48 86.7267 266.087 87.8933 265.3 88.8C264.513 89.7067 263.3 90.1733 261.66 90.2C260.86 90.2 260.133 90.1333 259.48 90C258.84 89.8667 258.28 89.6067 257.8 89.22C257.32 88.8333 257.08 88.3667 257.08 87.82C257.08 87.2733 257.18 86.7333 257.38 86.2C257.58 85.6533 257.793 85.2933 258.02 85.12ZM268.645 85.12C268.898 85.32 269.332 85.5933 269.945 85.94C270.572 86.2867 271.165 86.46 271.725 86.46C272.298 86.46 272.585 86.24 272.585 85.8C272.585 85.6 272.505 85.4267 272.345 85.28C272.185 85.12 271.892 84.94 271.465 84.74C271.038 84.54 270.718 84.3867 270.505 84.28C270.292 84.16 270.005 83.9733 269.645 83.72C269.298 83.4533 269.032 83.18 268.845 82.9C268.312 82.14 268.045 81.1733 268.045 80C268.045 78.8267 268.478 77.84 269.345 77.04C270.225 76.2267 271.372 75.82 272.785 75.82C273.745 75.82 274.632 75.9267 275.445 76.14C276.258 76.34 276.678 76.6067 276.705 76.94C276.705 76.98 276.705 77.02 276.705 77.06C276.705 77.5267 276.558 78.12 276.265 78.84C275.972 79.5467 275.765 79.94 275.645 80.02C274.792 79.58 274.025 79.36 273.345 79.36C272.678 79.36 272.345 79.6 272.345 80.08C272.345 80.3733 272.592 80.6333 273.085 80.86C273.192 80.9133 273.345 80.9867 273.545 81.08C273.745 81.1733 273.972 81.2867 274.225 81.42C274.492 81.54 274.772 81.7 275.065 81.9C275.372 82.0867 275.698 82.34 276.045 82.66C276.752 83.3267 277.105 84.2067 277.105 85.3C277.105 86.7267 276.712 87.8933 275.925 88.8C275.138 89.7067 273.925 90.1733 272.285 90.2C271.485 90.2 270.758 90.1333 270.105 90C269.465 89.8667 268.905 89.6067 268.425 89.22C267.945 88.8333 267.705 88.3667 267.705 87.82C267.705 87.2733 267.805 86.7333 268.005 86.2C268.205 85.6533 268.418 85.2933 268.645 85.12ZM281.25 75.42C281.13 75.42 280.977 75.2867 280.79 75.02C280.55 74.6467 280.43 74.3333 280.43 74.08C280.43 73.8267 280.47 73.66 280.55 73.58C282.723 72.38 283.83 71.78 283.87 71.78C284.003 71.78 284.17 71.94 284.37 72.26C284.677 72.7267 284.83 73.1667 284.83 73.58C284.83 73.7267 284.797 73.8333 284.73 73.9C282.437 74.9133 281.277 75.42 281.25 75.42ZM285.15 81.56C285.403 81.56 285.53 82.0267 285.53 82.96C285.53 83.24 285.497 83.5733 285.43 83.96C285.377 84.3333 285.27 84.52 285.11 84.52H282.57V86.52H286.25C286.477 86.52 286.63 86.8133 286.71 87.4C286.75 87.6533 286.77 87.9267 286.77 88.22C286.77 88.5 286.73 88.8667 286.65 89.32C286.57 89.7733 286.437 90 286.25 90H279.41C278.903 90 278.65 89.7933 278.65 89.38V76.52C278.65 76.1733 278.803 76 279.11 76H286.27C286.55 76 286.69 76.5933 286.69 77.78C286.69 78.9533 286.55 79.54 286.27 79.54H282.57V81.56H285.15ZM295.016 81.56C295.269 81.56 295.396 82.0267 295.396 82.96C295.396 83.24 295.362 83.5733 295.296 83.96C295.242 84.3333 295.136 84.52 294.976 84.52H292.436V86.52H296.116C296.342 86.52 296.496 86.8133 296.576 87.4C296.616 87.6533 296.636 87.9267 296.636 88.22C296.636 88.5 296.596 88.8667 296.516 89.32C296.436 89.7733 296.302 90 296.116 90H289.276C288.769 90 288.516 89.7933 288.516 89.38V76.52C288.516 76.1733 288.669 76 288.976 76H296.136C296.416 76 296.556 76.5933 296.556 77.78C296.556 78.9533 296.416 79.54 296.136 79.54H292.436V81.56H295.016Z" fill="black" fill-opacity="0.3"/>
</svg>
