<svg width="97" height="105" viewBox="0 0 97 105" fill="none" xmlns="http://www.w3.org/2000/svg">
<path d="M0 0.695984H96.4773V51.9194H0V0.695984Z" fill="#C5C5C5"/>
<path d="M16.0795 51.9194H57.8864V104.744H16.0795V51.9194Z" fill="#C5C5C5"/>
<path d="M16.0795 51.9194H57.8864V104.744H16.0795V51.9194Z" fill="#C5C5C5"/>
<path d="M31.068 29.82L31.108 27.1C31.108 26.9133 31.3013 26.7933 31.688 26.74C32.0746 26.6733 32.3946 26.64 32.648 26.64L33.428 26.7C33.9346 26.78 34.188 26.92 34.188 27.12L34.108 33.38C33.8413 33.5667 33.3013 33.7533 32.488 33.94C31.688 34.1133 30.768 34.2 29.728 34.2C27.7946 34.2 26.2346 33.5733 25.048 32.32C23.8613 31.0667 23.268 29.2267 23.268 26.8C23.268 24.7333 23.848 23.0533 25.008 21.76C26.168 20.4667 27.7746 19.82 29.828 19.82C30.7613 19.82 31.6013 19.9133 32.348 20.1C33.108 20.2733 33.628 20.5133 33.908 20.82C33.9213 20.9267 33.928 21.1267 33.928 21.42C33.928 21.7133 33.828 22.1333 33.628 22.68C33.428 23.2133 33.2013 23.6133 32.948 23.88C32.6946 24.1467 32.508 24.28 32.388 24.28C32.2813 24.28 32.1613 24.2333 32.028 24.14C31.908 24.0333 31.6613 23.9267 31.288 23.82C30.9146 23.7 30.5546 23.64 30.208 23.64C29.3813 23.64 28.708 23.9067 28.188 24.44C27.6813 24.9733 27.428 25.8 27.428 26.92C27.428 28.04 27.688 28.8933 28.208 29.48C28.7413 30.0533 29.348 30.34 30.028 30.34C30.7213 30.34 31.068 30.1667 31.068 29.82ZM45.4898 34.04C44.3298 34.04 43.7032 33.8533 43.6098 33.48L42.9498 30.9H39.7698L39.1898 33.38C39.1098 33.7933 38.4698 34 37.2698 34C36.6298 34 36.1565 33.9667 35.8498 33.9C35.5432 33.82 35.3898 33.76 35.3898 33.72L38.9298 20.18C38.9298 20.0733 39.8432 20.02 41.6698 20.02C43.4965 20.02 44.4098 20.0733 44.4098 20.18L47.8698 33.74C47.8698 33.8333 47.5632 33.9067 46.9498 33.96C46.3365 34.0133 45.8498 34.04 45.4898 34.04ZM40.2698 28.36H42.3698L41.4698 24.22H41.3498L40.2698 28.36ZM54.9153 19.82C55.8886 19.82 56.742 19.96 57.4753 20.24C58.222 20.5067 58.5953 20.8733 58.5953 21.34C58.5953 21.8067 58.4153 22.3867 58.0553 23.08C57.7086 23.76 57.4153 24.1 57.1753 24.1C57.1086 24.1 57.0286 24.0667 56.9353 24C56.8553 23.92 56.6553 23.84 56.3353 23.76C56.0286 23.6667 55.762 23.62 55.5353 23.62C54.762 23.62 54.1353 23.8933 53.6553 24.44C53.1886 24.9867 52.9553 25.8267 52.9553 26.96C52.9553 28.08 53.1953 28.9133 53.6753 29.46C54.1686 30.0067 54.7886 30.28 55.5353 30.28C55.842 30.28 56.182 30.24 56.5553 30.16C56.942 30.0667 57.2153 29.94 57.3753 29.78C57.402 29.7533 57.4553 29.74 57.5353 29.74C57.6153 29.74 57.762 29.8933 57.9753 30.2C58.202 30.4933 58.4086 30.8867 58.5953 31.38C58.782 31.86 58.8753 32.2333 58.8753 32.5C58.8753 33.02 58.4753 33.4333 57.6753 33.74C56.8753 34.0467 55.9286 34.2 54.8353 34.2C53.0753 34.2 51.6286 33.58 50.4953 32.34C49.362 31.1 48.7953 29.3533 48.7953 27.1C48.7953 24.8333 49.3753 23.0533 50.5353 21.76C51.7086 20.4667 53.1686 19.82 54.9153 19.82ZM66.3463 34.2C64.4796 34.2 62.9529 33.5867 61.7663 32.36C60.5929 31.1333 60.0063 29.3467 60.0063 27C60.0063 24.64 60.5996 22.8533 61.7863 21.64C62.9863 20.4267 64.5263 19.82 66.4063 19.82C68.2996 19.82 69.8263 20.42 70.9863 21.62C72.1463 22.8067 72.7263 24.6133 72.7263 27.04C72.7263 29.4533 72.1329 31.2533 70.9463 32.44C69.7596 33.6133 68.2263 34.2 66.3463 34.2ZM66.3663 23.66C65.7263 23.66 65.1863 23.9533 64.7463 24.54C64.3196 25.1267 64.1063 25.9533 64.1063 27.02C64.1063 28.0733 64.3129 28.8867 64.7263 29.46C65.1396 30.02 65.6796 30.3 66.3463 30.3C67.0263 30.3 67.5729 30.0133 67.9863 29.44C68.4129 28.8667 68.6263 28.0467 68.6263 26.98C68.6263 25.9133 68.4063 25.0933 67.9663 24.52C67.5396 23.9467 67.0063 23.66 66.3663 23.66Z" fill="#405B57"/>
</svg>
