<svg width="85" height="47" viewBox="0 0 85 47" fill="none" xmlns="http://www.w3.org/2000/svg">
<path d="M0 0H85V46.4212H0V0Z" fill="#C5C5C5"/>
<path d="M27.316 24.82L27.356 22.1C27.356 21.9133 27.5493 21.7933 27.936 21.74C28.3227 21.6733 28.6427 21.64 28.896 21.64L29.676 21.7C30.1827 21.78 30.436 21.92 30.436 22.12L30.356 28.38C30.0893 28.5667 29.5493 28.7533 28.736 28.94C27.936 29.1133 27.016 29.2 25.976 29.2C24.0427 29.2 22.4827 28.5733 21.296 27.32C20.1093 26.0667 19.516 24.2267 19.516 21.8C19.516 19.7333 20.096 18.0533 21.256 16.76C22.416 15.4667 24.0227 14.82 26.076 14.82C27.0093 14.82 27.8493 14.9133 28.596 15.1C29.356 15.2733 29.876 15.5133 30.156 15.82C30.1693 15.9267 30.176 16.1267 30.176 16.42C30.176 16.7133 30.076 17.1333 29.876 17.68C29.676 18.2133 29.4493 18.6133 29.196 18.88C28.9427 19.1467 28.756 19.28 28.636 19.28C28.5293 19.28 28.4093 19.2333 28.276 19.14C28.156 19.0333 27.9093 18.9267 27.536 18.82C27.1627 18.7 26.8027 18.64 26.456 18.64C25.6293 18.64 24.956 18.9067 24.436 19.44C23.9293 19.9733 23.676 20.8 23.676 21.92C23.676 23.04 23.936 23.8933 24.456 24.48C24.9893 25.0533 25.596 25.34 26.276 25.34C26.9693 25.34 27.316 25.1667 27.316 24.82ZM38.0579 14.82C39.0312 14.82 39.8846 14.96 40.6179 15.24C41.3646 15.5067 41.7379 15.8733 41.7379 16.34C41.7379 16.8067 41.5579 17.3867 41.1979 18.08C40.8512 18.76 40.5579 19.1 40.3179 19.1C40.2512 19.1 40.1712 19.0667 40.0779 19C39.9979 18.92 39.7979 18.84 39.4779 18.76C39.1712 18.6667 38.9046 18.62 38.6779 18.62C37.9046 18.62 37.2779 18.8933 36.7979 19.44C36.3312 19.9867 36.0979 20.8267 36.0979 21.96C36.0979 23.08 36.3379 23.9133 36.8179 24.46C37.3112 25.0067 37.9312 25.28 38.6779 25.28C38.9846 25.28 39.3246 25.24 39.6979 25.16C40.0846 25.0667 40.3579 24.94 40.5179 24.78C40.5446 24.7533 40.5979 24.74 40.6779 24.74C40.7579 24.74 40.9046 24.8933 41.1179 25.2C41.3446 25.4933 41.5512 25.8867 41.7379 26.38C41.9246 26.86 42.0179 27.2333 42.0179 27.5C42.0179 28.02 41.6179 28.4333 40.8179 28.74C40.0179 29.0467 39.0712 29.2 37.9779 29.2C36.2179 29.2 34.7712 28.58 33.6379 27.34C32.5046 26.1 31.9379 24.3533 31.9379 22.1C31.9379 19.8333 32.5179 18.0533 33.6779 16.76C34.8512 15.4667 36.3112 14.82 38.0579 14.82ZM49.2688 14.82C50.2422 14.82 51.0955 14.96 51.8288 15.24C52.5755 15.5067 52.9488 15.8733 52.9488 16.34C52.9488 16.8067 52.7688 17.3867 52.4088 18.08C52.0622 18.76 51.7688 19.1 51.5288 19.1C51.4622 19.1 51.3822 19.0667 51.2888 19C51.2088 18.92 51.0088 18.84 50.6888 18.76C50.3822 18.6667 50.1155 18.62 49.8888 18.62C49.1155 18.62 48.4888 18.8933 48.0088 19.44C47.5422 19.9867 47.3088 20.8267 47.3088 21.96C47.3088 23.08 47.5488 23.9133 48.0288 24.46C48.5222 25.0067 49.1422 25.28 49.8888 25.28C50.1955 25.28 50.5355 25.24 50.9088 25.16C51.2955 25.0667 51.5688 24.94 51.7288 24.78C51.7555 24.7533 51.8088 24.74 51.8888 24.74C51.9688 24.74 52.1155 24.8933 52.3288 25.2C52.5555 25.4933 52.7622 25.8867 52.9488 26.38C53.1355 26.86 53.2288 27.2333 53.2288 27.5C53.2288 28.02 52.8288 28.4333 52.0288 28.74C51.2288 29.0467 50.2822 29.2 49.1888 29.2C47.4288 29.2 45.9822 28.58 44.8488 27.34C43.7155 26.1 43.1488 24.3533 43.1488 22.1C43.1488 19.8333 43.7288 18.0533 44.8888 16.76C46.0622 15.4667 47.5222 14.82 49.2688 14.82ZM54.7598 28.08V16.08C54.7598 15.7467 54.8398 15.4867 54.9998 15.3C55.1731 15.1 55.3931 15 55.6598 15H58.9998C61.1198 15 62.7264 15.5333 63.8198 16.6C64.9264 17.6667 65.4798 19.3467 65.4798 21.64C65.4798 26.5467 63.3864 29 59.1998 29H55.7798C55.0998 29 54.7598 28.6933 54.7598 28.08ZM58.5998 18.8V24.78C58.5998 25.06 58.6198 25.24 58.6598 25.32C58.6998 25.3867 58.8198 25.42 59.0198 25.42C59.7531 25.42 60.3064 25.1467 60.6798 24.6C61.0664 24.0533 61.2598 23.1467 61.2598 21.88C61.2598 20.6 61.0598 19.7667 60.6598 19.38C60.2731 18.9933 59.6531 18.8 58.7998 18.8H58.5998Z" fill="#405B57"/>
</svg>
