<svg width="137" height="47" viewBox="0 0 137 47" fill="none" xmlns="http://www.w3.org/2000/svg">
<path d="M0 0H136.972V46.4212H0V0Z" fill="#C5C5C5"/>
<path d="M64.5684 29.7746C63.3817 29.7746 62.7884 29.6412 62.7884 29.3746L62.3684 21.3546L59.9284 29.4746C59.875 29.6346 59.4217 29.7146 58.5684 29.7146C57.715 29.7146 57.275 29.6412 57.2484 29.4946L54.7284 21.2746L54.4484 29.2546C54.435 29.4546 54.1817 29.5946 53.6884 29.6746C53.195 29.7412 52.7817 29.7746 52.4484 29.7746C52.1284 29.7746 51.815 29.7546 51.5084 29.7146C50.8684 29.6212 50.555 29.4546 50.5684 29.2146L51.0284 16.2146C51.0284 15.8946 51.8417 15.7346 53.4684 15.7346C53.9484 15.7346 54.535 15.7746 55.2284 15.8546C55.9217 15.9212 56.3084 16.0612 56.3884 16.2746L58.6284 22.5746L60.5884 16.2546C60.7084 15.9079 61.6284 15.7346 63.3484 15.7346C63.8417 15.7346 64.4284 15.7746 65.1084 15.8546C65.8017 15.9212 66.1484 16.0479 66.1484 16.2346L66.7284 29.3546C66.7284 29.5012 66.4684 29.6079 65.9484 29.6746C65.4284 29.7412 64.9684 29.7746 64.5684 29.7746ZM82.7129 29.7746C81.5262 29.7746 80.9329 29.6412 80.9329 29.3746L80.5129 21.3546L78.0729 29.4746C78.0196 29.6346 77.5662 29.7146 76.7129 29.7146C75.8596 29.7146 75.4196 29.6412 75.3929 29.4946L72.8729 21.2746L72.5929 29.2546C72.5796 29.4546 72.3262 29.5946 71.8329 29.6746C71.3396 29.7412 70.9262 29.7746 70.5929 29.7746C70.2729 29.7746 69.9596 29.7546 69.6529 29.7146C69.0129 29.6212 68.6996 29.4546 68.7129 29.2146L69.1729 16.2146C69.1729 15.8946 69.9862 15.7346 71.6129 15.7346C72.0929 15.7346 72.6796 15.7746 73.3729 15.8546C74.0662 15.9212 74.4529 16.0612 74.5329 16.2746L76.7729 22.5746L78.7329 16.2546C78.8529 15.9079 79.7729 15.7346 81.4929 15.7346C81.9862 15.7346 82.5729 15.7746 83.2529 15.8546C83.9462 15.9212 84.2929 16.0479 84.2929 16.2346L84.8729 29.3546C84.8729 29.5012 84.6129 29.6079 84.0929 29.6746C83.5729 29.7412 83.1129 29.7746 82.7129 29.7746ZM88.1774 26.3146V19.1946H86.7574C86.5308 19.1946 86.3708 18.9079 86.2774 18.3346C86.2374 18.0546 86.2174 17.7679 86.2174 17.4746C86.2174 17.1812 86.2374 16.8946 86.2774 16.6146C86.3708 16.0412 86.5308 15.7546 86.7574 15.7546H93.4774C93.7041 15.7546 93.8574 16.0412 93.9374 16.6146C93.9908 16.8946 94.0174 17.1812 94.0174 17.4746C94.0174 17.7679 93.9908 18.0546 93.9374 18.3346C93.8574 18.9079 93.7041 19.1946 93.4774 19.1946H92.1374V26.3146H93.5374C93.7641 26.3146 93.9241 26.6012 94.0174 27.1746C94.0708 27.4546 94.0974 27.7412 94.0974 28.0346C94.0974 28.3279 94.0708 28.6146 94.0174 28.8946C93.9241 29.4679 93.7641 29.7546 93.5374 29.7546H86.7974C86.5708 29.7546 86.4174 29.4679 86.3374 28.8946C86.2841 28.6146 86.2574 28.3279 86.2574 28.0346C86.2574 27.7412 86.2841 27.4546 86.3374 27.1746C86.4174 26.6012 86.5708 26.3146 86.7974 26.3146H88.1774Z" fill="#405B57"/>
</svg>
