<svg width="85" height="95" viewBox="0 0 85 95" fill="none" xmlns="http://www.w3.org/2000/svg">
<path d="M0 0H85V46.4212H0V0Z" fill="#C5C5C5"/>
<path d="M7.98865 46.4212H30.5L30.5 73.3535L30.5 94.3352H7.98865V46.4212Z" fill="#C5C5C5"/>
<path d="M7.98865 63.9212H64.2671V94.3352H7.98865V63.9212Z" fill="#C5C5C5"/>
<path d="M28.8845 30.04C27.6712 30.04 27.0645 29.9067 27.0645 29.64V16.68C27.0645 16.2267 27.2712 16 27.6845 16H31.2045C33.1779 16 34.5979 16.4067 35.4645 17.22C36.3445 18.0333 36.7845 19.2133 36.7845 20.76C36.7845 22.04 36.3712 23.2133 35.5445 24.28C35.1312 24.8133 34.5245 25.24 33.7245 25.56C32.9245 25.88 31.9912 26.04 30.9245 26.04V29.62C30.9245 29.78 30.6712 29.8933 30.1645 29.96C29.6712 30.0133 29.2445 30.04 28.8845 30.04ZM30.9245 19.48V22.64H31.1845C31.6512 22.64 32.0445 22.4933 32.3645 22.2C32.6845 21.9067 32.8445 21.4933 32.8445 20.96C32.8445 20.4267 32.7312 20.0467 32.5045 19.82C32.2912 19.5933 31.9045 19.48 31.3445 19.48H30.9245ZM45.0508 21.56C45.3041 21.56 45.4308 22.0267 45.4308 22.96C45.4308 23.24 45.3974 23.5733 45.3308 23.96C45.2774 24.3333 45.1708 24.52 45.0108 24.52H42.4708V26.52H46.1508C46.3774 26.52 46.5308 26.8133 46.6108 27.4C46.6508 27.6533 46.6708 27.9267 46.6708 28.22C46.6708 28.5 46.6308 28.8667 46.5508 29.32C46.4708 29.7733 46.3374 30 46.1508 30H39.3108C38.8041 30 38.5508 29.7933 38.5508 29.38V16.52C38.5508 16.1733 38.7041 16 39.0108 16H46.1708C46.4508 16 46.5908 16.5933 46.5908 17.78C46.5908 18.9533 46.4508 19.54 46.1708 19.54H42.4708V21.56H45.0508ZM54.1341 15.82C55.1074 15.82 55.9607 15.96 56.6941 16.24C57.4407 16.5067 57.8141 16.8733 57.8141 17.34C57.8141 17.8067 57.6341 18.3867 57.2741 19.08C56.9274 19.76 56.6341 20.1 56.3941 20.1C56.3274 20.1 56.2474 20.0667 56.1541 20C56.0741 19.92 55.8741 19.84 55.5541 19.76C55.2474 19.6667 54.9807 19.62 54.7541 19.62C53.9807 19.62 53.3541 19.8933 52.8741 20.44C52.4074 20.9867 52.1741 21.8267 52.1741 22.96C52.1741 24.08 52.4141 24.9133 52.8941 25.46C53.3874 26.0067 54.0074 26.28 54.7541 26.28C55.0607 26.28 55.4007 26.24 55.7741 26.16C56.1607 26.0667 56.4341 25.94 56.5941 25.78C56.6207 25.7533 56.6741 25.74 56.7541 25.74C56.8341 25.74 56.9807 25.8933 57.1941 26.2C57.4207 26.4933 57.6274 26.8867 57.8141 27.38C58.0007 27.86 58.0941 28.2333 58.0941 28.5C58.0941 29.02 57.6941 29.4333 56.8941 29.74C56.0941 30.0467 55.1474 30.2 54.0541 30.2C52.2941 30.2 50.8474 29.58 49.7141 28.34C48.5807 27.1 48.0141 25.3533 48.0141 23.1C48.0141 20.8333 48.5941 19.0533 49.7541 17.76C50.9274 16.4667 52.3874 15.82 54.1341 15.82Z" fill="#405B57"/>
</svg>
