<svg width="155" height="114" viewBox="0 0 155 114" fill="none" xmlns="http://www.w3.org/2000/svg">
<path d="M73.9659 52.8242H115.773V113.652H73.9659V52.8242Z" fill="#C5C5C5"/>
<path d="M38.5909 0H154.364V26.4121V52.8242H38.5909V0Z" fill="#C5C5C5"/>
<path d="M0 6.40292H38.5909V46.4212H0V6.40292Z" fill="#C5C5C5"/>
<path d="M78.9243 31.12C79.1776 31.32 79.611 31.5933 80.2243 31.94C80.851 32.2867 81.4443 32.46 82.0043 32.46C82.5776 32.46 82.8643 32.24 82.8643 31.8C82.8643 31.6 82.7843 31.4267 82.6243 31.28C82.4643 31.12 82.171 30.94 81.7443 30.74C81.3176 30.54 80.9976 30.3867 80.7843 30.28C80.571 30.16 80.2843 29.9733 79.9243 29.72C79.5776 29.4533 79.311 29.18 79.1243 28.9C78.591 28.14 78.3243 27.1733 78.3243 26C78.3243 24.8267 78.7576 23.84 79.6243 23.04C80.5043 22.2267 81.651 21.82 83.0643 21.82C84.0243 21.82 84.911 21.9267 85.7243 22.14C86.5376 22.34 86.9576 22.6067 86.9843 22.94C86.9843 22.98 86.9843 23.02 86.9843 23.06C86.9843 23.5267 86.8376 24.12 86.5443 24.84C86.251 25.5467 86.0443 25.94 85.9243 26.02C85.071 25.58 84.3043 25.36 83.6243 25.36C82.9576 25.36 82.6243 25.6 82.6243 26.08C82.6243 26.3733 82.871 26.6333 83.3643 26.86C83.471 26.9133 83.6243 26.9867 83.8243 27.08C84.0243 27.1733 84.251 27.2867 84.5043 27.42C84.771 27.54 85.051 27.7 85.3443 27.9C85.651 28.0867 85.9776 28.34 86.3243 28.66C87.031 29.3267 87.3843 30.2067 87.3843 31.3C87.3843 32.7267 86.991 33.8933 86.2043 34.8C85.4176 35.7067 84.2043 36.1733 82.5643 36.2C81.7643 36.2 81.0376 36.1333 80.3843 36C79.7443 35.8667 79.1843 35.6067 78.7043 35.22C78.2243 34.8333 77.9843 34.3667 77.9843 33.82C77.9843 33.2733 78.0843 32.7333 78.2843 32.2C78.4843 31.6533 78.6976 31.2933 78.9243 31.12ZM96.4293 31.82L96.4693 29.1C96.4693 28.9133 96.6626 28.7933 97.0493 28.74C97.436 28.6733 97.756 28.64 98.0093 28.64L98.7893 28.7C99.296 28.78 99.5493 28.92 99.5493 29.12L99.4693 35.38C99.2026 35.5667 98.6626 35.7533 97.8493 35.94C97.0493 36.1133 96.1293 36.2 95.0893 36.2C93.156 36.2 91.596 35.5733 90.4093 34.32C89.2226 33.0667 88.6293 31.2267 88.6293 28.8C88.6293 26.7333 89.2093 25.0533 90.3693 23.76C91.5293 22.4667 93.136 21.82 95.1893 21.82C96.1226 21.82 96.9626 21.9133 97.7093 22.1C98.4693 22.2733 98.9893 22.5133 99.2693 22.82C99.2826 22.9267 99.2893 23.1267 99.2893 23.42C99.2893 23.7133 99.1893 24.1333 98.9893 24.68C98.7893 25.2133 98.5626 25.6133 98.3093 25.88C98.056 26.1467 97.8693 26.28 97.7493 26.28C97.6426 26.28 97.5226 26.2333 97.3893 26.14C97.2693 26.0333 97.0226 25.9267 96.6493 25.82C96.276 25.7 95.916 25.64 95.5693 25.64C94.7426 25.64 94.0693 25.9067 93.5493 26.44C93.0426 26.9733 92.7893 27.8 92.7893 28.92C92.7893 30.04 93.0493 30.8933 93.5693 31.48C94.1026 32.0533 94.7093 32.34 95.3893 32.34C96.0826 32.34 96.4293 32.1667 96.4293 31.82ZM115.451 36.02C114.265 36.02 113.671 35.8867 113.671 35.62L113.251 27.6L110.811 35.72C110.758 35.88 110.305 35.96 109.451 35.96C108.598 35.96 108.158 35.8867 108.131 35.74L105.611 27.52L105.331 35.5C105.318 35.7 105.065 35.84 104.571 35.92C104.078 35.9867 103.665 36.02 103.331 36.02C103.011 36.02 102.698 36 102.391 35.96C101.751 35.8667 101.438 35.7 101.451 35.46L101.911 22.46C101.911 22.14 102.725 21.98 104.351 21.98C104.831 21.98 105.418 22.02 106.111 22.1C106.805 22.1667 107.191 22.3067 107.271 22.52L109.511 28.82L111.471 22.5C111.591 22.1533 112.511 21.98 114.231 21.98C114.725 21.98 115.311 22.02 115.991 22.1C116.685 22.1667 117.031 22.2933 117.031 22.48L117.611 35.6C117.611 35.7467 117.351 35.8533 116.831 35.92C116.311 35.9867 115.851 36.02 115.451 36.02Z" fill="#405B57"/>
</svg>
