<svg width="358" height="100" viewBox="0 0 358 100" fill="none" xmlns="http://www.w3.org/2000/svg">
<path d="M33 40H293.242L330 100H69.4814L33 40Z" fill="#C5C5C5" fill-opacity="0.8"/>
<path d="M313.014 40.67C313.204 40.67 313.299 41.02 313.299 41.72C313.299 41.93 313.274 42.18 313.224 42.47C313.184 42.75 313.104 42.89 312.984 42.89H311.079V44.39H313.839C314.009 44.39 314.124 44.61 314.184 45.05C314.214 45.24 314.229 45.445 314.229 45.665C314.229 45.875 314.199 46.15 314.139 46.49C314.079 46.83 313.979 47 313.839 47H308.709C308.329 47 308.139 46.845 308.139 46.535V36.89C308.139 36.63 308.254 36.5 308.484 36.5H313.854C314.064 36.5 314.169 36.945 314.169 37.835C314.169 38.715 314.064 39.155 313.854 39.155H311.079V40.67H313.014ZM323.756 46.67C323.756 46.88 323.286 46.985 322.346 46.985C321.406 46.985 320.896 46.91 320.816 46.76L318.311 42.08V46.745C318.311 46.925 317.846 47.015 316.916 47.015C315.996 47.015 315.536 46.925 315.536 46.745V36.71C315.536 36.56 315.931 36.485 316.721 36.485C317.031 36.485 317.391 36.515 317.801 36.575C318.221 36.625 318.476 36.725 318.566 36.875L320.966 41.495V36.785C320.966 36.595 321.431 36.5 322.361 36.5C323.291 36.5 323.756 36.595 323.756 36.785V46.67ZM329.778 46.76C329.778 46.96 329.283 47.06 328.293 47.06C327.303 47.06 326.808 46.96 326.808 46.76V39.23H325.008C324.838 39.23 324.718 39 324.648 38.54C324.618 38.32 324.603 38.095 324.603 37.865C324.603 37.635 324.618 37.41 324.648 37.19C324.718 36.73 324.838 36.5 325.008 36.5H331.533C331.703 36.5 331.823 36.73 331.893 37.19C331.923 37.41 331.938 37.635 331.938 37.865C331.938 38.095 331.923 38.32 331.893 38.54C331.823 39 331.703 39.23 331.533 39.23H329.778V46.76ZM335.657 46.79C335.657 46.95 335.182 47.03 334.232 47.03C333.272 47.03 332.792 46.955 332.792 46.805V37.025C332.792 36.675 332.977 36.5 333.347 36.5H336.212C338.842 36.5 340.157 37.525 340.157 39.575C340.157 40.195 340.037 40.76 339.797 41.27C339.557 41.77 339.217 42.17 338.777 42.47L340.667 45.62C340.587 45.86 340.327 46.135 339.887 46.445C339.287 46.875 338.792 47.09 338.402 47.09C338.012 47.09 337.722 46.95 337.532 46.67L336.122 43.385H335.657V46.79ZM335.657 39.155V41.405H335.732C336.682 41.405 337.157 41.01 337.157 40.22C337.157 39.86 337.062 39.595 336.872 39.425C336.692 39.245 336.392 39.155 335.972 39.155H335.657ZM343.515 36.065C343.425 36.065 343.31 35.965 343.17 35.765C342.99 35.485 342.9 35.25 342.9 35.06C342.9 34.87 342.93 34.745 342.99 34.685C344.62 33.785 345.45 33.335 345.48 33.335C345.58 33.335 345.705 33.455 345.855 33.695C346.085 34.045 346.2 34.375 346.2 34.685C346.2 34.795 346.175 34.875 346.125 34.925C344.405 35.685 343.535 36.065 343.515 36.065ZM346.44 40.67C346.63 40.67 346.725 41.02 346.725 41.72C346.725 41.93 346.7 42.18 346.65 42.47C346.61 42.75 346.53 42.89 346.41 42.89H344.505V44.39H347.265C347.435 44.39 347.55 44.61 347.61 45.05C347.64 45.24 347.655 45.445 347.655 45.665C347.655 45.875 347.625 46.15 347.565 46.49C347.505 46.83 347.405 47 347.265 47H342.135C341.755 47 341.565 46.845 341.565 46.535V36.89C341.565 36.63 341.68 36.5 341.91 36.5H347.28C347.49 36.5 347.595 36.945 347.595 37.835C347.595 38.715 347.49 39.155 347.28 39.155H344.505V40.67H346.44ZM353.839 40.67C354.029 40.67 354.124 41.02 354.124 41.72C354.124 41.93 354.099 42.18 354.049 42.47C354.009 42.75 353.929 42.89 353.809 42.89H351.904V44.39H354.664C354.834 44.39 354.949 44.61 355.009 45.05C355.039 45.24 355.054 45.445 355.054 45.665C355.054 45.875 355.024 46.15 354.964 46.49C354.904 46.83 354.804 47 354.664 47H349.534C349.154 47 348.964 46.845 348.964 46.535V36.89C348.964 36.63 349.079 36.5 349.309 36.5H354.679C354.889 36.5 354.994 36.945 354.994 37.835C354.994 38.715 354.889 39.155 354.679 39.155H351.904V40.67H353.839Z" fill="#DCDCDC"/>
<path d="M32.9989 23.66C32.9989 23.8867 32.3189 24 30.9589 24C29.6122 24 28.9389 23.8867 28.9389 23.66V13.8L26.7789 13.82C26.3789 13.82 26.1789 13.18 26.1789 11.9C26.1789 11.46 26.2189 11.0333 26.2989 10.62C26.3922 10.2067 26.5456 10 26.7589 10H32.2389C32.4656 10 32.6456 10.0533 32.7789 10.16C32.9256 10.2533 32.9989 10.3733 32.9989 10.52V23.66ZM41.5039 15.56C41.7572 15.56 41.8839 16.0267 41.8839 16.96C41.8839 17.24 41.8506 17.5733 41.7839 17.96C41.7306 18.3333 41.6239 18.52 41.4639 18.52H38.9239V20.52H42.6039C42.8306 20.52 42.9839 20.8133 43.0639 21.4C43.1039 21.6533 43.1239 21.9267 43.1239 22.22C43.1239 22.5 43.0839 22.8667 43.0039 23.32C42.9239 23.7733 42.7906 24 42.6039 24H35.7639C35.2572 24 35.0039 23.7933 35.0039 23.38V10.52C35.0039 10.1733 35.1572 10 35.4639 10H42.6239C42.9039 10 43.0439 10.5933 43.0439 11.78C43.0439 12.9533 42.9039 13.54 42.6239 13.54H38.9239V15.56H41.5039ZM48.6872 23.72C48.6872 23.9333 48.0539 24.04 46.7872 24.04C45.5072 24.04 44.8672 23.94 44.8672 23.74V10.7C44.8672 10.2333 45.1139 10 45.6072 10H49.4272C52.9339 10 54.6872 11.3667 54.6872 14.1C54.6872 14.9267 54.5272 15.68 54.2072 16.36C53.8872 17.0267 53.4339 17.56 52.8472 17.96L55.3672 22.16C55.2605 22.48 54.9139 22.8467 54.3272 23.26C53.5272 23.8333 52.8672 24.12 52.3472 24.12C51.8272 24.12 51.4405 23.9333 51.1872 23.56L49.3072 19.18H48.6872V23.72ZM48.6872 13.54V16.54H48.7872C50.0539 16.54 50.6872 16.0133 50.6872 14.96C50.6872 14.48 50.5605 14.1267 50.3072 13.9C50.0672 13.66 49.6672 13.54 49.1072 13.54H48.6872ZM62.9336 9.42C62.8136 9.42 62.6603 9.28667 62.4736 9.02C62.2336 8.64667 62.1136 8.33333 62.1136 8.08C62.1136 7.82667 62.1536 7.66 62.2336 7.58C64.4069 6.38 65.5136 5.78 65.5536 5.78C65.6869 5.78 65.8536 5.94 66.0536 6.26C66.3603 6.72667 66.5136 7.16667 66.5136 7.58C66.5136 7.72667 66.4803 7.83333 66.4136 7.9C64.1203 8.91333 62.9603 9.42 62.9336 9.42ZM66.8336 15.56C67.0869 15.56 67.2136 16.0267 67.2136 16.96C67.2136 17.24 67.1803 17.5733 67.1136 17.96C67.0603 18.3333 66.9536 18.52 66.7936 18.52H64.2536V20.52H67.9336C68.1603 20.52 68.3136 20.8133 68.3936 21.4C68.4336 21.6533 68.4536 21.9267 68.4536 22.22C68.4536 22.5 68.4136 22.8667 68.3336 23.32C68.2536 23.7733 68.1203 24 67.9336 24H61.0936C60.5869 24 60.3336 23.7933 60.3336 23.38V10.52C60.3336 10.1733 60.4869 10 60.7936 10H67.9536C68.2336 10 68.3736 10.5933 68.3736 11.78C68.3736 12.9533 68.2336 13.54 67.9536 13.54H64.2536V15.56H66.8336ZM76.2192 23.68C76.2192 23.9467 75.5592 24.08 74.2392 24.08C72.9192 24.08 72.2592 23.9467 72.2592 23.68V13.64H69.8592C69.6326 13.64 69.4726 13.3333 69.3792 12.72C69.3392 12.4267 69.3192 12.1267 69.3192 11.82C69.3192 11.5133 69.3392 11.2133 69.3792 10.92C69.4726 10.3067 69.6326 10 69.8592 10H78.5592C78.7859 10 78.9459 10.3067 79.0392 10.92C79.0792 11.2133 79.0992 11.5133 79.0992 11.82C79.0992 12.1267 79.0792 12.4267 79.0392 12.72C78.9459 13.3333 78.7859 13.64 78.5592 13.64H76.2192V23.68ZM89.1305 24.04C87.9705 24.04 87.3438 23.8533 87.2505 23.48L86.5905 20.9H83.4105L82.8305 23.38C82.7505 23.7933 82.1105 24 80.9105 24C80.2705 24 79.7971 23.9667 79.4905 23.9C79.1838 23.82 79.0305 23.76 79.0305 23.72L82.5705 10.18C82.5705 10.0733 83.4838 10.02 85.3105 10.02C87.1371 10.02 88.0505 10.0733 88.0505 10.18L91.5105 23.74C91.5105 23.8333 91.2038 23.9067 90.5905 23.96C89.9771 24.0133 89.4905 24.04 89.1305 24.04ZM83.9105 18.36H86.0105L85.1105 14.22H84.9905L83.9105 18.36ZM100.236 19.82L100.276 17.1C100.276 16.9133 100.469 16.7933 100.856 16.74C101.243 16.6733 101.563 16.64 101.816 16.64L102.596 16.7C103.103 16.78 103.356 16.92 103.356 17.12L103.276 23.38C103.009 23.5667 102.469 23.7533 101.656 23.94C100.856 24.1133 99.9359 24.2 98.8959 24.2C96.9626 24.2 95.4026 23.5733 94.2159 22.32C93.0293 21.0667 92.4359 19.2267 92.4359 16.8C92.4359 14.7333 93.0159 13.0533 94.1759 11.76C95.3359 10.4667 96.9426 9.82 98.9959 9.82C99.9293 9.82 100.769 9.91333 101.516 10.1C102.276 10.2733 102.796 10.5133 103.076 10.82C103.089 10.9267 103.096 11.1267 103.096 11.42C103.096 11.7133 102.996 12.1333 102.796 12.68C102.596 13.2133 102.369 13.6133 102.116 13.88C101.863 14.1467 101.676 14.28 101.556 14.28C101.449 14.28 101.329 14.2333 101.196 14.14C101.076 14.0333 100.829 13.9267 100.456 13.82C100.083 13.7 99.7226 13.64 99.3759 13.64C98.5493 13.64 97.8759 13.9067 97.3559 14.44C96.8493 14.9733 96.5959 15.8 96.5959 16.92C96.5959 18.04 96.8559 18.8933 97.3759 19.48C97.9093 20.0533 98.5159 20.34 99.1959 20.34C99.8893 20.34 100.236 20.1667 100.236 19.82ZM111.758 15.56C112.011 15.56 112.138 16.0267 112.138 16.96C112.138 17.24 112.104 17.5733 112.038 17.96C111.984 18.3333 111.878 18.52 111.718 18.52H109.178V20.52H112.858C113.084 20.52 113.238 20.8133 113.318 21.4C113.358 21.6533 113.378 21.9267 113.378 22.22C113.378 22.5 113.338 22.8667 113.258 23.32C113.178 23.7733 113.044 24 112.858 24H106.018C105.511 24 105.258 23.7933 105.258 23.38V10.52C105.258 10.1733 105.411 10 105.718 10H112.878C113.158 10 113.298 10.5933 113.298 11.78C113.298 12.9533 113.158 13.54 112.878 13.54H109.178V15.56H111.758Z" fill="black" fill-opacity="0.3"/>
<path d="M303 54H325.636L342 80H330.667H319.335L303 54Z" fill="#888888" fill-opacity="0.3"/>
</svg>
